<svg width="33" height="28" viewBox="0 0 33 28" fill="none" xmlns="http://www.w3.org/2000/svg">
<g filter="url(#filter0_g_3503_333)">
<path d="M14.6318 0.973347C15.1984 -0.0499697 16.6667 -0.0597736 17.2471 0.955769L32.1787 27.0847C31.8246 27.0861 31.4885 27.2727 31.2998 27.571C28.6222 23.0163 24.0284 17.7805 18.6924 16.2399C15.9859 15.4587 13.0759 15.6234 10.082 17.3317C7.26023 18.9421 4.33347 21.9422 1.44531 26.8874L1.03418 27.6091C0.881299 27.2798 0.556046 27.0643 0.200195 27.0427L14.6318 0.973347ZM16.7695 7.95089C16.3752 7.34389 15.4861 7.34385 15.0918 7.95089L13.0371 11.1149C12.6051 11.7802 13.0827 12.6599 13.876 12.6599H17.9863C18.7792 12.6594 19.256 11.78 18.8242 11.1149L16.7695 7.95089Z" fill="#F05454"/>
<path d="M14.6318 26.8357C15.1984 27.8591 16.6667 27.8689 17.2471 26.8533L32.1787 0.724407C31.8246 0.722976 31.4885 0.536408 31.2998 0.238079C28.6222 4.79276 24.0284 10.0286 18.6924 11.5691C15.9859 12.3504 13.0759 12.1857 10.082 10.4773C7.26023 8.86703 4.33347 5.86685 1.44531 0.921673L1.03418 0.199993C0.881299 0.529245 0.556046 0.744734 0.200195 0.766399L14.6318 26.8357ZM16.7695 19.8582C16.3752 20.4652 15.4861 20.4652 15.0918 19.8582L13.0371 16.6941C12.6051 16.0289 13.0827 15.1492 13.876 15.1492H17.9863C18.7792 15.1496 19.256 16.0291 18.8242 16.6941L16.7695 19.8582Z" fill="#F05454"/>
</g>
<defs>
<filter id="filter0_g_3503_333" x="0.00019531" y="-4.88311e-05" width="32.3785" height="27.8092" filterUnits="userSpaceOnUse" color-interpolation-filters="sRGB">
<feFlood flood-opacity="0" result="BackgroundImageFix"/>
<feBlend mode="normal" in="SourceGraphic" in2="BackgroundImageFix" result="shape"/>
<feTurbulence type="fractalNoise" baseFrequency="0.99900001287460327 0.99900001287460327" numOctaves="3" seed="3007" />
<feDisplacementMap in="shape" scale="0.40000000596046448" xChannelSelector="R" yChannelSelector="G" result="displacedImage" width="100%" height="100%" />
<feMerge result="effect1_texture_3503_333">
<feMergeNode in="displacedImage"/>
</feMerge>
</filter>
</defs>
</svg>
